# xmcd
#
# Track frame offsets: 
#        150
#        12538
#        31302
#        46419
#        63315
#        79779
#        98472
#        116686
#        131591
#        145590
#        157972
#
# Disc length: 2277 seconds
#
# Revision: 0
# Processed by: cddbd v1.5.2PL0 Copyright (c) Steve Scherf et al.
# Submitted via: ExactAudioCopy v1.0b4
#
DISCID=8508e30b
DTITLE=Big Moose Walker - Going Home Tomorrow (LP)
DYEAR=1980
DGENRE=Blues
TTITLE0=Chicago Here I Come
TTITLE1=All My Love
TTITLE2=Eye Sight To The Blind
TTITLE3=Blackjack
TTITLE4=Wrong Doing Woman
TTITLE5=Going Home Tomorrow
TTITLE6=Packed Up And Ready To Leave Me
TTITLE7=Cross My Heart
TTITLE8=I Don't Want Your Money Baby
TTITLE9=Moose On The Loose Boogie
TTITLE10=I've Been Try To See My Baby
EXTD=
EXTT0=
EXTT1=
EXTT2=
EXTT3=
EXTT4=
EXTT5=
EXTT6=
EXTT7=
EXTT8=
EXTT9=
EXTT10=
PLAYORDER=
